<?xml version="1.0" encoding="UTF-8"?>
<svg xmlns="http://www.w3.org/2000/svg" xmlns:xlink="http://www.w3.org/1999/xlink" width="96px" height="96px" viewBox="0 0 96 96" version="1.1">
<g id="surface1">
<path style=" stroke:none;fill-rule:nonzero;fill:rgb(44.313725%,83.137255%,33.72549%);fill-opacity:1;" d="M 96 48 C 96 74.507812 74.507812 96 48 96 C 21.492188 96 0 74.507812 0 48 C 0 21.492188 21.492188 0 48 0 C 74.507812 0 96 21.492188 96 48 Z M 96 48 "/>
<path style=" stroke:none;fill-rule:nonzero;fill:rgb(98.823529%,98.823529%,99.215686%);fill-opacity:1;" d="M 73.5625 10.359375 L 22.4375 10.359375 C 20.324219 10.359375 18.605469 12.078125 18.605469 14.191406 L 18.605469 81.746094 C 18.605469 83.859375 20.324219 85.578125 22.4375 85.578125 L 73.496094 85.578125 C 75.609375 85.578125 77.328125 83.859375 77.328125 81.746094 L 77.328125 14.191406 C 77.394531 12.078125 75.675781 10.359375 73.5625 10.359375 Z M 73.5625 10.359375 "/>
<path style=" stroke:none;fill-rule:nonzero;fill:rgb(43.137255%,69.411765%,88.235294%);fill-opacity:1;" d="M 50.996094 35.480469 C 54.386719 34.265625 56.75 31.066406 56.75 27.234375 C 56.75 22.375 52.855469 18.480469 48 18.480469 C 43.144531 18.480469 39.25 22.375 39.25 27.234375 C 39.25 31 41.675781 34.265625 45.003906 35.480469 C 37.53125 36.820312 31.773438 43.269531 31.523438 51.136719 L 64.429688 51.136719 C 64.226562 43.269531 58.484375 36.820312 50.996094 35.480469 Z M 50.996094 35.480469 "/>
<path style=" stroke:none;fill-rule:nonzero;fill:rgb(94.509804%,95.294118%,96.862745%);fill-opacity:1;" d="M 31.507812 57.460938 L 64.414062 57.460938 L 64.414062 60.597656 L 31.507812 60.597656 Z M 31.507812 57.460938 "/>
<path style=" stroke:none;fill-rule:nonzero;fill:rgb(94.509804%,95.294118%,96.862745%);fill-opacity:1;" d="M 31.507812 65.898438 L 64.414062 65.898438 L 64.414062 69.035156 L 31.507812 69.035156 Z M 31.507812 65.898438 "/>
<path style=" stroke:none;fill-rule:nonzero;fill:rgb(94.509804%,95.294118%,96.862745%);fill-opacity:1;" d="M 31.507812 74.332031 L 54.132812 74.332031 L 54.132812 77.472656 L 31.507812 77.472656 Z M 31.507812 74.332031 "/>
</g>
</svg>
